<?xml version="1.0" standalone="no"?>
<!DOCTYPE svg PUBLIC "-//W3C//DTD SVG 20010904//EN"
 "http://www.w3.org/TR/2001/REC-SVG-20010904/DTD/svg10.dtd">
<svg version="1.0" xmlns="http://www.w3.org/2000/svg"
 width="1000.000000pt" height="1000.000000pt" viewBox="0 0 1000.000000 1000.000000"
 preserveAspectRatio="xMidYMid meet">
<metadata>
Created by potrace 1.14, written by Peter Selinger 2001-2017
</metadata>
<g transform="translate(0.000000,1000.000000) scale(0.100000,-0.100000)"
fill="#000000" stroke="none">
<path d="M3135 6906 c-104 -60 -291 -168 -415 -240 l-225 -131 -3 -485 -2
-485 132 -76 c73 -42 256 -147 406 -234 150 -87 275 -155 278 -152 10 9 12
100 4 122 -5 14 -122 87 -326 205 -176 101 -329 188 -341 194 l-23 11 0 415 1
415 62 32 c34 17 61 37 59 43 -1 6 2 9 8 5 5 -3 67 27 138 68 328 192 408 238
427 243 19 5 150 -67 619 -341 l89 -52 63 36 c34 20 59 39 56 43 -4 3 -90 54
-192 113 -102 59 -230 133 -285 165 -55 32 -154 89 -220 127 l-120 69 -190
-110z"/>
<path d="M4975 7006 c-18 -12 -216 -127 -647 -374 l-167 -96 -3 -79 -3 -80
-60 -36 -60 -36 -5 -334 -5 -334 -147 -85 c-81 -48 -144 -90 -141 -96 3 -5 1
-6 -5 -2 -12 7 -272 -139 -272 -152 -4 -61 -5 -142 -3 -142 3 0 125 70 388
223 105 60 217 125 250 144 56 33 61 34 90 20 16 -8 172 -97 345 -197 173
-101 351 -204 395 -228 44 -25 106 -60 138 -78 32 -19 63 -32 68 -28 5 3 9 1
9 -5 0 -6 9 -15 19 -21 17 -9 19 -7 16 11 -3 12 -1 18 3 15 4 -4 8 -12 8 -17
1 -5 2 -13 3 -18 2 -13 209 -131 224 -127 6 1 8 1 4 -2 -10 -5 9 -17 186 -118
71 -41 134 -71 140 -67 7 3 9 3 5 -2 -4 -4 13 -21 39 -37 40 -26 49 -28 69
-17 13 6 21 17 17 22 -3 6 -1 7 5 3 19 -12 54 13 47 33 -3 11 2 24 12 32 16
13 17 12 4 -4 -12 -15 -12 -20 -1 -30 10 -10 11 -9 5 2 -6 10 -4 13 7 9 8 -4
77 31 161 80 81 48 217 127 303 176 111 64 151 92 142 99 -9 6 -8 7 5 3 22 -7
18 -9 509 275 208 120 391 225 408 234 l30 16 0 487 0 488 -262 151 c-145 83
-330 190 -413 238 -82 48 -154 88 -160 88 -5 0 -55 -26 -110 -58 -55 -32 -201
-117 -325 -188 -124 -72 -263 -152 -309 -179 -46 -26 -87 -48 -92 -48 -4 0
-95 50 -201 111 -106 62 -283 163 -393 227 -110 63 -209 121 -220 128 -24 17
-26 17 -50 0z m375 -345 c189 -110 346 -204 348 -210 2 -6 -3 -11 -12 -11 -8
0 -17 -4 -21 -9 -3 -6 6 -6 25 -1 19 5 28 5 25 -1 -4 -5 0 -9 7 -9 9 0 9 -3
-2 -10 -12 -8 -12 -10 -1 -10 8 0 12 -3 8 -6 -3 -3 -14 -1 -24 5 -12 7 -14 10
-4 11 8 0 12 3 9 6 -3 3 -16 -1 -27 -8 -17 -10 -23 -10 -29 -1 -5 9 -25 2 -69
-24 -34 -20 -59 -41 -56 -46 3 -6 1 -7 -5 -3 -18 11 -279 -146 -275 -164 4
-12 3 -13 -5 -1 -8 11 -27 3 -98 -40 -49 -29 -92 -57 -96 -63 -4 -6 -8 -7 -8
-3 0 5 -5 5 -10 2 -7 -4 -7 -12 0 -25 7 -13 6 -19 -4 -23 -10 -4 -12 0 -9 14
3 10 0 19 -6 19 -8 0 -11 -113 -11 -402 0 -256 4 -398 10 -388 7 12 9 10 7 -7
-1 -26 14 -33 -262 125 -325 187 -439 253 -452 264 -10 8 -12 85 -11 322 1
171 4 353 7 404 l6 93 345 200 c190 109 347 199 350 199 3 0 160 -90 350 -199z
m1538 80 c114 -65 271 -156 350 -202 l142 -83 0 -407 0 -407 -172 -100 c-436
-252 -504 -291 -520 -297 -17 -7 -18 16 -19 376 -1 211 -1 395 -1 407 1 17 -3
22 -14 18 -8 -3 -12 -2 -9 4 3 5 -4 14 -15 20 -16 8 -20 8 -20 -3 0 -8 -12
-19 -27 -26 l-28 -11 24 20 c26 23 22 56 -6 46 -10 -4 -14 -4 -10 0 8 8 -7 20
-84 62 -31 17 -59 28 -63 25 -3 -4 -6 -2 -6 4 0 15 -120 84 -132 77 -7 -5 -8
-2 -3 6 5 8 3 11 -6 8 -8 -3 -13 -11 -11 -17 1 -7 -2 -10 -8 -6 -8 5 -8 11 0
20 8 10 4 17 -21 29 -17 9 -36 13 -42 9 -6 -4 -7 -1 -2 7 6 10 4 12 -9 7 -9
-4 -15 -3 -12 2 4 6 -66 54 -84 56 -9 2 -105 66 -105 71 0 6 687 404 698 404
4 0 101 -53 215 -119z m-1105 -363 c9 3 9 1 0 -9 -9 -9 -15 -8 -27 4 -9 9 -16
22 -16 29 1 8 7 5 16 -7 8 -11 21 -19 27 -17z m271 -4 c5 -14 4 -15 -9 -4 -17
14 -19 20 -6 20 5 0 12 -7 15 -16z m-458 -28 c0 -16 -4 -22 -14 -19 -11 5 -11
7 0 14 7 5 9 9 5 9 -5 0 -5 5 -2 10 9 15 11 12 11 -14z m109 -16 c3 -5 1 -10
-5 -10 -7 0 -8 -6 -1 -18 5 -10 10 -152 10 -335 l1 -317 -38 -24 c-50 -33
-507 -295 -527 -302 -13 -5 -15 32 -15 325 0 238 3 331 11 331 8 0 7 6 -2 18
-13 15 -12 16 4 3 13 -10 20 -11 31 -2 7 6 35 23 62 37 27 14 54 30 59 36 7 8
6 8 -4 3 -9 -5 -12 -4 -7 3 4 6 14 8 23 5 12 -5 14 -3 8 7 -5 9 -4 11 3 6 6
-4 60 21 119 55 118 68 136 81 106 73 -12 -3 -23 -2 -26 3 -3 5 9 8 27 7 47
-4 141 53 140 84 -1 23 10 30 21 12z m302 -15 c0 -8 -4 -12 -9 -9 -5 3 -6 10
-3 15 9 13 12 11 12 -6z m-357 -15 c8 -5 11 -10 5 -10 -5 0 -17 5 -25 10 -8 5
-10 10 -5 10 6 0 17 -5 25 -10z m367 -21 c29 -18 36 -19 51 -7 15 12 16 11 4
-4 -11 -14 -10 -18 7 -27 11 -6 28 -8 38 -5 12 4 14 3 6 -3 -8 -6 22 -28 92
-70 74 -43 106 -58 114 -50 8 8 15 7 24 -2 10 -10 8 -11 -8 -6 -17 6 -17 4 4
-15 13 -11 31 -18 38 -16 8 3 11 1 8 -4 -6 -9 73 -56 88 -52 4 1 7 -2 7 -8 0
-5 9 -10 19 -10 10 0 22 -7 25 -16 3 -9 6 -162 6 -341 0 -303 -1 -325 -17
-319 -10 4 -108 59 -218 123 -110 64 -230 134 -267 155 l-68 39 0 329 c0 182
3 330 6 330 4 0 22 -9 41 -21z m33 11 c8 -5 11 -10 5 -10 -5 0 -17 5 -25 10
-8 5 -10 10 -5 10 6 0 17 -5 25 -10z m-603 -11 c-10 -6 -14 -15 -10 -22 4 -7
0 -6 -10 2 -18 15 -23 26 -7 16 6 -3 10 -1 10 4 0 6 8 11 18 11 16 -1 16 -1
-1 -11z m193 -3 c0 -2 -7 -7 -16 -10 -8 -3 -12 -2 -9 4 6 10 25 14 25 6z m564
-38 c-8 -12 10 -10 23 3 9 9 11 7 9 -6 -2 -11 -12 -19 -24 -20 -12 -1 -19 2
-16 6 2 4 -5 11 -17 14 -19 6 -20 7 -2 20 18 13 38 1 27 -17z m-704 -20 c0 -5
-5 -8 -11 -8 -5 0 -7 5 -3 12 5 8 2 9 -11 4 -15 -5 -16 -4 -5 9 11 13 15 13
21 3 5 -7 9 -16 9 -20z m834 0 c-5 -7 -1 -9 9 -5 10 3 17 3 17 -2 0 -5 -8 -11
-18 -13 -13 -4 -18 1 -18 18 0 12 4 20 8 18 5 -3 5 -10 2 -16z m-167 -4 c-3
-3 -12 -4 -19 -1 -8 3 -5 6 6 6 11 1 17 -2 13 -5z m-867 -44 c0 -5 -5 -10 -11
-10 -5 0 -7 5 -4 10 3 6 8 10 11 10 2 0 4 -4 4 -10z m-5 -29 c3 -5 2 -12 -3
-15 -5 -3 -9 1 -9 9 0 17 3 19 12 6z m95 -6 c0 -1 -8 -5 -18 -7 -11 -3 -19 0
-19 7 0 7 8 10 19 7 10 -2 18 -6 18 -7z m-190 -5 c0 -5 -5 -10 -11 -10 -5 0
-7 5 -4 10 3 6 8 10 11 10 2 0 4 -4 4 -10z m1270 -45 c11 -13 10 -14 -5 -9
-13 5 -16 4 -11 -5 9 -14 -16 -11 -26 4 -18 25 22 34 42 10z m-1362 -9 c-2 0
-13 -10 -25 -20 -13 -11 -23 -14 -23 -8 0 16 30 43 41 36 6 -3 9 -7 7 -8z
m142 -6 c-8 -5 -19 -10 -25 -10 -5 0 -3 5 5 10 8 5 20 10 25 10 6 0 3 -5 -5
-10z m-73 -16 c-3 -3 -12 -4 -19 -1 -8 3 -5 6 6 6 11 1 17 -2 13 -5z m1300 -9
c0 -8 -4 -12 -9 -9 -5 3 -6 10 -3 15 9 13 12 11 12 -6z m-1262 -5 c3 -6 -4
-10 -17 -10 -18 0 -20 2 -8 10 19 12 18 12 25 0z m1412 -16 c-3 -3 -12 -4 -19
-1 -8 3 -5 6 6 6 11 1 17 -2 13 -5z m-70 -121 c-3 -10 -5 -4 -5 12 0 17 2 24
5 18 2 -7 2 -21 0 -30z m0 -345 c-1 -57 -3 -11 -3 102 0 113 2 159 3 103 2
-57 2 -149 0 -205z m-517 -110 c96 -55 211 -122 255 -148 44 -25 117 -68 163
-95 46 -26 80 -51 75 -55 -8 -8 -19 -14 -201 -118 -62 -35 -112 -66 -112 -69
0 -2 5 -1 12 3 7 4 8 3 4 -5 -4 -6 -11 -9 -16 -6 -8 5 -50 -17 -130 -65 -8 -5
-52 -30 -98 -56 -49 -27 -81 -51 -79 -59 3 -6 -1 -12 -9 -12 -7 0 -11 4 -8 9
8 12 -10 10 -23 -3 -6 -6 -9 -19 -6 -28 3 -9 1 -12 -4 -6 -11 14 -74 35 -85
29 -5 -3 -7 0 -6 8 2 7 -3 12 -9 10 -7 -1 -13 2 -13 6 0 13 -59 43 -72 36 -6
-4 -8 -3 -5 2 8 14 -100 77 -116 68 -6 -4 -9 -3 -4 1 9 11 -104 75 -118 68 -5
-4 -7 -3 -3 2 8 9 -17 26 -126 87 -37 21 -72 35 -76 33 -5 -3 -12 0 -16 6 -4
8 -3 9 4 5 7 -4 12 -5 12 -2 0 8 -92 56 -99 51 -4 -2 -8 2 -8 10 0 8 4 12 8 9
5 -3 165 85 356 196 205 118 354 198 363 195 8 -3 94 -51 190 -107z m522 -60
c2 -20 0 -34 -4 -32 -4 3 -8 24 -7 47 1 47 6 41 11 -15z m84 -43 c13 -13 13
-15 1 -15 -8 0 -20 7 -27 15 -9 11 -10 15 -1 15 7 0 19 -7 27 -15z m-1614
-137 c-9 -9 -15 -9 -24 1 -11 10 -10 11 5 6 10 -5 17 -2 17 6 0 7 3 9 7 6 4
-4 1 -13 -5 -19z m58 -18 c0 -5 -4 -10 -10 -10 -5 0 -10 5 -10 10 0 6 5 10 10
10 6 0 10 -4 10 -10z m-14 -77 c-11 -11 -19 6 -11 24 8 17 8 17 12 0 3 -10 2
-21 -1 -24z m-49 0 c-4 -3 1 -16 10 -27 17 -20 17 -20 -2 -6 -11 8 -22 15 -24
17 -5 3 9 23 16 23 4 0 3 -3 0 -7z m67 -59 c3 -8 2 -12 -4 -9 -6 3 -10 10 -10
16 0 14 7 11 14 -7z m1366 12 c0 -2 -9 -6 -20 -9 -11 -3 -18 -1 -14 4 5 9 34
13 34 5z m-53 -22 c-3 -3 -12 -4 -19 -1 -8 3 -5 6 6 6 11 1 17 -2 13 -5z m-48
-27 c-2 -2 -17 -11 -34 -21 l-30 -17 24 20 c13 12 28 21 34 21 6 0 8 -1 6 -3z
m151 -1 c0 -2 -8 -10 -17 -17 -16 -13 -17 -12 -4 4 13 16 21 21 21 13z m-1135
-16 c15 -6 23 -15 19 -21 -4 -7 -9 -7 -13 -2 -3 5 -15 15 -26 21 -25 14 -15
15 20 2z m998 -5 c-3 -9 -8 -14 -10 -11 -3 3 -2 9 2 15 9 16 15 13 8 -4z m20
-10 c-3 -9 -8 -14 -10 -11 -3 3 -2 9 2 15 9 16 15 13 8 -4z m17 -42 c-12 -8
-24 -12 -27 -9 -4 3 0 6 8 6 12 0 12 2 0 9 -9 6 -5 9 13 9 27 0 27 -1 6 -15z
m-1060 3 c0 -2 -7 -7 -16 -10 -8 -3 -12 -2 -9 4 6 10 25 14 25 6z m1019 -20
c-2 -2 -15 -9 -29 -15 -24 -11 -24 -11 -6 3 16 13 49 24 35 12z m-904 -44 c-3
-3 -11 0 -18 7 -9 10 -8 11 6 5 10 -3 15 -9 12 -12z m765 14 c0 -3 -4 -8 -10
-11 -5 -3 -10 -1 -10 4 0 6 5 11 10 11 6 0 10 -2 10 -4z m-720 -30 c0 -2 -7
-7 -16 -10 -8 -3 -12 -2 -9 4 6 10 25 14 25 6z m111 -23 c13 -16 12 -17 -3 -4
-10 7 -18 15 -18 17 0 8 8 3 21 -13z m588 -5 c-2 -2 -17 -14 -34 -28 l-30 -25
24 28 c14 15 29 27 34 27 6 0 8 -1 6 -2z m-602 -22 c-1 -6 6 -10 16 -10 9 1
17 -2 17 -7 0 -5 -11 -8 -24 -7 -14 1 -22 6 -20 10 3 4 0 8 -5 8 -6 0 -11 4
-11 8 0 5 7 9 14 9 8 0 14 -5 13 -11z m433 -11 c0 -2 -6 -7 -12 -11 -7 -4 -10
-4 -6 1 4 4 0 14 -10 22 -15 13 -15 13 6 3 12 -6 22 -13 22 -15z m-469 -38
c-10 -9 -11 -8 -5 6 3 10 9 15 12 12 3 -3 0 -11 -7 -18z m509 -2 c0 -8 -4 -15
-10 -15 -5 0 -7 7 -4 15 4 8 8 15 10 15 2 0 4 -7 4 -15z m-440 -25 c0 -5 -2
-10 -4 -10 -3 0 -8 5 -11 10 -3 6 -1 10 4 10 6 0 11 -4 11 -10z m33 -20 c3
-11 1 -18 -4 -14 -5 3 -9 12 -9 20 0 20 7 17 13 -6z m299 -32 c-7 -7 -12 -8
-12 -2 0 14 12 26 19 19 2 -3 -1 -11 -7 -17z m-127 2 c3 -5 -1 -10 -10 -10 -9
0 -13 5 -10 10 3 6 8 10 10 10 2 0 7 -4 10 -10z m-1 -59 c19 -7 19 -8 -2 -13
-12 -4 -20 -2 -17 2 3 5 -3 11 -12 13 -12 3 -13 5 -3 5 8 0 24 -3 34 -7z"/>
<path d="M3635 4250 c-165 -24 -277 -148 -300 -334 l-7 -57 113 3 113 3 11 55
c24 117 72 159 157 137 42 -11 71 -76 71 -157 -1 -116 -38 -181 -281 -490
l-162 -205 0 -82 0 -83 350 0 350 0 0 95 0 95 -200 0 c-110 0 -200 3 -200 6 0
8 132 192 213 299 130 168 179 310 157 449 -24 148 -112 244 -242 261 -84 11
-93 12 -143 5z"/>
<path d="M4481 4249 c-132 -26 -209 -111 -257 -285 -22 -80 -31 -418 -14 -550
24 -198 86 -305 208 -362 48 -22 64 -24 146 -20 77 3 99 8 138 30 88 53 145
144 172 280 22 106 22 503 1 603 -29 136 -103 245 -193 283 -57 24 -141 33
-201 21z m129 -214 c41 -44 50 -111 50 -395 0 -286 -9 -351 -51 -396 -32 -34
-90 -33 -123 2 -45 49 -51 96 -51 404 0 262 2 289 20 335 32 80 105 103 155
50z"/>
<path d="M5341 4249 c-157 -21 -274 -153 -296 -332 l-7 -58 113 3 113 3 11 55
c15 72 41 116 82 135 79 38 145 -30 146 -150 1 -118 -37 -186 -277 -490 l-166
-210 0 -82 0 -83 350 0 350 0 0 95 0 95 -200 0 c-110 0 -200 3 -200 6 0 6 157
225 236 329 158 210 184 427 67 583 -32 42 -116 90 -173 97 -25 3 -56 7 -70 9
-14 1 -49 -1 -79 -5z"/>
<path d="M6173 4250 c-139 -20 -254 -134 -270 -271 l-6 -49 117 0 c110 0 116
1 116 20 0 26 22 70 46 91 52 45 129 25 159 -41 21 -48 22 -133 2 -183 -22
-52 -52 -67 -138 -70 l-74 -2 -3 -92 -3 -93 71 0 c96 0 135 -18 160 -72 36
-78 25 -181 -25 -234 -28 -29 -39 -34 -77 -34 -69 0 -128 58 -128 125 l0 25
-116 0 -117 0 6 -56 c12 -117 93 -222 203 -264 123 -46 297 -17 391 65 75 66
107 144 108 260 0 73 -5 100 -24 142 -21 48 -68 100 -117 130 -18 11 -18 12 6
29 79 58 121 142 121 243 0 82 -6 111 -37 172 -40 81 -128 141 -224 154 -86
11 -95 12 -147 5z"/>
</g>
</svg>
